<mxfile host="app.diagrams.net" modified="2022-11-19T10:14:58.158Z" agent="5.0 (Windows NT 10.0; Win64; x64) AppleWebKit/537.36 (KHTML, like Gecko) Chrome/107.0.0.0 Safari/537.36 Edg/107.0.1418.42" etag="RGi_Tu5CvnA7KegNUNGf" version="20.5.3" type="github">
  <diagram id="foLx7_Z0T-yJAvjrhI4D" name="第 1 页">
    <mxGraphModel dx="957" dy="575" grid="1" gridSize="10" guides="1" tooltips="1" connect="1" arrows="1" fold="1" page="1" pageScale="1" pageWidth="827" pageHeight="1169" math="0" shadow="0">
      <root>
        <mxCell id="0" />
        <mxCell id="1" parent="0" />
        <mxCell id="oO9dfAi7Z7NZ3iFqfIbf-1" value="&lt;font face=&quot;Comic Sans MS&quot;&gt;dsffd&amp;nbsp;&lt;/font&gt;" style="text;html=1;align=center;verticalAlign=middle;resizable=0;points=[];autosize=1;strokeColor=none;fillColor=none;" vertex="1" parent="1">
          <mxGeometry x="130" y="295" width="60" height="30" as="geometry" />
        </mxCell>
      </root>
    </mxGraphModel>
  </diagram>
</mxfile>
